<mxfile host="app.diagrams.net" modified="2023-03-07T14:14:57.215Z" agent="5.0 (Windows NT 10.0; Win64; x64) AppleWebKit/537.36 (KHTML, like Gecko) Chrome/110.0.0.0 Safari/537.36" etag="xY5jx2FulEveAfOfKmSn" version="21.0.2" type="github">
  <diagram name="第 1 页" id="oN2P9VLXF7pg_zZ2ediw">
    <mxGraphModel dx="1221" dy="629" grid="1" gridSize="10" guides="1" tooltips="1" connect="1" arrows="1" fold="1" page="1" pageScale="1" pageWidth="827" pageHeight="1169" math="0" shadow="0">
      <root>
        <mxCell id="0" />
        <mxCell id="1" parent="0" />
        <mxCell id="hlPtTHn1c3iagaa5-j2K-1" value="" style="rounded=0;whiteSpace=wrap;html=1;dashed=1;fillColor=#fff2cc;strokeColor=#d6b656;" parent="1" vertex="1">
          <mxGeometry x="490" y="180" width="126.5" height="163" as="geometry" />
        </mxCell>
        <mxCell id="hlPtTHn1c3iagaa5-j2K-2" value="" style="rounded=0;whiteSpace=wrap;html=1;dashed=1;fillColor=#dae8fc;strokeColor=#6c8ebf;" parent="1" vertex="1">
          <mxGeometry x="300" y="179" width="117" height="161" as="geometry" />
        </mxCell>
        <mxCell id="hlPtTHn1c3iagaa5-j2K-3" value="" style="shape=image;html=1;verticalAlign=top;verticalLabelPosition=bottom;labelBackgroundColor=#ffffff;imageAspect=0;aspect=fixed;image=https://cdn4.iconfinder.com/data/icons/logos-and-brands/512/97_Docker_logo_logos-128.png" parent="1" vertex="1">
          <mxGeometry x="329" y="209" width="60" height="60" as="geometry" />
        </mxCell>
        <mxCell id="hlPtTHn1c3iagaa5-j2K-9" style="edgeStyle=orthogonalEdgeStyle;rounded=0;orthogonalLoop=1;jettySize=auto;html=1;exitX=0.5;exitY=1;exitDx=0;exitDy=0;exitPerimeter=0;entryX=0.5;entryY=0;entryDx=0;entryDy=0;entryPerimeter=0;" parent="1" source="hlPtTHn1c3iagaa5-j2K-10" edge="1">
          <mxGeometry relative="1" as="geometry">
            <mxPoint x="359" y="214" as="targetPoint" />
          </mxGeometry>
        </mxCell>
        <mxCell id="T47G0ER0VSsA-wwksDls-2" value="" style="edgeStyle=orthogonalEdgeStyle;rounded=0;orthogonalLoop=1;jettySize=auto;html=1;" edge="1" parent="1" source="hlPtTHn1c3iagaa5-j2K-10" target="hlPtTHn1c3iagaa5-j2K-3">
          <mxGeometry relative="1" as="geometry" />
        </mxCell>
        <mxCell id="hlPtTHn1c3iagaa5-j2K-10" value="路由器" style="points=[[0.5,0,0],[1,0.5,0],[0.5,1,0],[0,0.5,0],[0.145,0.145,0],[0.8555,0.145,0],[0.855,0.8555,0],[0.145,0.855,0]];verticalLabelPosition=bottom;html=1;verticalAlign=top;aspect=fixed;align=center;pointerEvents=1;shape=mxgraph.cisco19.rect;prIcon=router;fillColor=#FAFAFA;strokeColor=#005073;" parent="1" vertex="1">
          <mxGeometry x="334" y="100" width="50" height="50" as="geometry" />
        </mxCell>
        <mxCell id="hlPtTHn1c3iagaa5-j2K-11" value="" style="shape=image;html=1;verticalAlign=top;verticalLabelPosition=bottom;labelBackgroundColor=#ffffff;imageAspect=0;aspect=fixed;image=https://cdn4.iconfinder.com/data/icons/logos-and-brands/512/97_Docker_logo_logos-128.png;" parent="1" vertex="1">
          <mxGeometry x="521" y="214" width="60" height="60" as="geometry" />
        </mxCell>
        <mxCell id="T47G0ER0VSsA-wwksDls-1" style="edgeStyle=orthogonalEdgeStyle;rounded=0;orthogonalLoop=1;jettySize=auto;html=1;exitX=0.5;exitY=1;exitDx=0;exitDy=0;exitPerimeter=0;" edge="1" parent="1" source="hlPtTHn1c3iagaa5-j2K-14" target="hlPtTHn1c3iagaa5-j2K-11">
          <mxGeometry relative="1" as="geometry" />
        </mxCell>
        <mxCell id="hlPtTHn1c3iagaa5-j2K-14" value="" style="points=[[0.5,0,0],[1,0.5,0],[0.5,1,0],[0,0.5,0],[0.145,0.145,0],[0.8555,0.145,0],[0.855,0.8555,0],[0.145,0.855,0]];verticalLabelPosition=bottom;html=1;verticalAlign=top;aspect=fixed;align=center;pointerEvents=1;shape=mxgraph.cisco19.rect;prIcon=router;fillColor=#FAFAFA;strokeColor=#005073;" parent="1" vertex="1">
          <mxGeometry x="526" y="97" width="50" height="50" as="geometry" />
        </mxCell>
        <mxCell id="T47G0ER0VSsA-wwksDls-4" style="edgeStyle=orthogonalEdgeStyle;rounded=0;orthogonalLoop=1;jettySize=auto;html=1;exitX=0;exitY=0.5;exitDx=0;exitDy=0;exitPerimeter=0;entryX=0.5;entryY=0;entryDx=0;entryDy=0;entryPerimeter=0;" edge="1" parent="1" source="hlPtTHn1c3iagaa5-j2K-16" target="hlPtTHn1c3iagaa5-j2K-10">
          <mxGeometry relative="1" as="geometry" />
        </mxCell>
        <mxCell id="T47G0ER0VSsA-wwksDls-5" style="edgeStyle=orthogonalEdgeStyle;rounded=0;orthogonalLoop=1;jettySize=auto;html=1;exitX=1;exitY=0.5;exitDx=0;exitDy=0;exitPerimeter=0;entryX=0.5;entryY=0;entryDx=0;entryDy=0;entryPerimeter=0;" edge="1" parent="1" source="hlPtTHn1c3iagaa5-j2K-16" target="hlPtTHn1c3iagaa5-j2K-14">
          <mxGeometry relative="1" as="geometry" />
        </mxCell>
        <mxCell id="hlPtTHn1c3iagaa5-j2K-16" value="交换机" style="points=[[0.015,0.015,0],[0.985,0.015,0],[0.985,0.985,0],[0.015,0.985,0],[0.25,0,0],[0.5,0,0],[0.75,0,0],[1,0.25,0],[1,0.5,0],[1,0.75,0],[0.75,1,0],[0.5,1,0],[0.25,1,0],[0,0.75,0],[0,0.5,0],[0,0.25,0]];verticalLabelPosition=bottom;html=1;verticalAlign=top;aspect=fixed;align=center;pointerEvents=1;shape=mxgraph.cisco19.rect;prIcon=l2_switch;fillColor=#FAFAFA;strokeColor=#005073;" parent="1" vertex="1">
          <mxGeometry x="430" y="20" width="50" height="50" as="geometry" />
        </mxCell>
        <mxCell id="hlPtTHn1c3iagaa5-j2K-17" style="edgeStyle=orthogonalEdgeStyle;rounded=0;orthogonalLoop=1;jettySize=auto;html=1;exitX=0.5;exitY=1;exitDx=0;exitDy=0;exitPerimeter=0;endArrow=none;endFill=0;" parent="1" source="hlPtTHn1c3iagaa5-j2K-16" target="hlPtTHn1c3iagaa5-j2K-16" edge="1">
          <mxGeometry relative="1" as="geometry" />
        </mxCell>
        <mxCell id="hlPtTHn1c3iagaa5-j2K-18" value="目标1&amp;nbsp;172.17.1.2/24" style="text;html=1;resizable=0;autosize=1;align=center;verticalAlign=middle;points=[];fillColor=none;strokeColor=none;rounded=0;dashed=1;" parent="1" vertex="1">
          <mxGeometry x="293.5" y="260" width="130" height="30" as="geometry" />
        </mxCell>
        <mxCell id="hlPtTHn1c3iagaa5-j2K-19" value="目标2&amp;nbsp;172.17.0.4/24" style="text;html=1;resizable=0;autosize=1;align=center;verticalAlign=middle;points=[];fillColor=none;strokeColor=none;rounded=0;dashed=1;" parent="1" vertex="1">
          <mxGeometry x="483" y="260" width="130" height="30" as="geometry" />
        </mxCell>
        <mxCell id="T47G0ER0VSsA-wwksDls-3" value="路由器" style="text;html=1;strokeColor=none;fillColor=none;align=center;verticalAlign=middle;whiteSpace=wrap;rounded=0;" vertex="1" parent="1">
          <mxGeometry x="522" y="148" width="60" height="30" as="geometry" />
        </mxCell>
        <mxCell id="T47G0ER0VSsA-wwksDls-6" value="内网1&amp;nbsp;172.17.1.0/24" style="text;html=1;resizable=0;autosize=1;align=center;verticalAlign=middle;points=[];fillColor=none;strokeColor=none;rounded=0;dashed=1;" vertex="1" parent="1">
          <mxGeometry x="294" y="300" width="130" height="30" as="geometry" />
        </mxCell>
        <mxCell id="T47G0ER0VSsA-wwksDls-7" value="内网2&amp;nbsp;172.17.0.0/24" style="text;html=1;resizable=0;autosize=1;align=center;verticalAlign=middle;points=[];fillColor=none;strokeColor=none;rounded=0;dashed=1;" vertex="1" parent="1">
          <mxGeometry x="484.25" y="300" width="130" height="30" as="geometry" />
        </mxCell>
      </root>
    </mxGraphModel>
  </diagram>
</mxfile>
